<?xml version="1.0" standalone="no"?>
<!DOCTYPE svg PUBLIC "-//W3C//DTD SVG 20010904//EN"
 "http://www.w3.org/TR/2001/REC-SVG-20010904/DTD/svg10.dtd">
<svg version="1.0" xmlns="http://www.w3.org/2000/svg"
 width="1858.000000pt" height="582.000000pt" viewBox="0 0 1858.000000 582.000000"
 preserveAspectRatio="xMidYMid meet">

<g transform="translate(0.000000,582.000000) scale(0.100000,-0.100000)"
fill="#000000" stroke="none">
<path d="M9433 5149 c-24 -11 -55 -35 -69 -53 -27 -34 -27 -34 -63 -18 -20 8
-63 15 -96 16 -52 1 -67 -3 -113 -33 -79 -50 -94 -77 -100 -180 -3 -52 0 -96
6 -107 8 -15 3 -25 -34 -57 -60 -52 -74 -83 -76 -164 -1 -53 4 -80 24 -123 28
-63 89 -122 141 -139 l36 -12 -6 -63 c-8 -89 15 -160 73 -225 39 -43 56 -54
116 -72 116 -36 218 -15 301 61 l55 50 73 -30 c41 -16 88 -38 104 -47 42 -24
162 -122 215 -177 28 -29 53 -46 68 -46 37 0 153 95 203 167 28 40 38 83 20
83 -17 0 -150 140 -184 193 -45 71 -85 165 -96 224 -9 43 -7 51 13 73 50 55
69 100 74 176 6 92 -17 159 -75 224 -53 60 -155 112 -229 118 -47 4 -57 8 -69
31 -21 42 -91 107 -139 130 -53 26 -117 26 -173 0z m181 -67 c48 -33 87 -83
95 -125 8 -34 12 -35 82 -22 30 6 49 1 104 -26 139 -68 200 -184 165 -311 -14
-49 -50 -91 -118 -136 -67 -45 -89 -79 -96 -154 -9 -103 -38 -128 -149 -128
-83 0 -87 -3 -106 -69 -17 -59 -37 -88 -81 -116 -49 -31 -116 -44 -184 -34
-73 10 -114 34 -152 91 -47 70 -51 116 -18 251 3 15 2 27 -2 28 -5 1 -26 2
-46 3 -57 4 -117 51 -145 114 -27 61 -30 139 -8 182 18 35 61 70 87 70 28 0
32 25 13 77 -13 33 -16 62 -12 110 6 76 24 100 101 138 45 21 56 23 96 14 25
-5 57 -19 72 -29 38 -28 57 -25 73 13 38 92 141 119 229 59z m370 -714 c4 -24
29 -89 57 -146 42 -84 66 -119 134 -189 66 -69 82 -91 75 -104 -13 -24 -141
-139 -154 -139 -7 0 -28 16 -47 36 -35 36 -173 147 -219 175 -22 14 -86 41
-162 68 -23 9 -26 14 -19 33 7 21 15 23 72 24 104 1 166 49 176 137 9 88 15
108 35 127 32 30 45 25 52 -22z"/>
<path d="M7941 5075 c-37 -42 -41 -92 -13 -144 19 -35 72 -71 105 -71 36 0 86
29 101 59 46 89 -15 191 -114 191 -42 0 -52 -4 -79 -35z m114 -21 c18 -7 45
-55 45 -79 0 -21 -44 -65 -65 -65 -25 0 -75 55 -75 82 0 52 45 81 95 62z"/>
<path d="M11970 5026 c0 -21 -27 -196 -55 -356 -19 -107 -57 -330 -85 -495
-132 -778 -193 -1123 -215 -1225 -15 -69 -57 -292 -75 -400 -6 -36 -18 -89
-26 -119 l-16 -55 -18 30 c-10 16 -48 112 -85 214 -90 249 -213 580 -226 605
-5 11 -38 103 -73 205 -35 102 -89 257 -121 345 -31 88 -81 229 -110 314 -30
85 -62 166 -73 180 -33 45 -77 64 -127 56 -42 -6 -45 -9 -45 -35 0 -31 48
-180 175 -545 75 -216 94 -270 173 -490 22 -60 56 -157 77 -215 20 -58 43
-116 50 -130 6 -14 18 -47 24 -75 7 -27 18 -59 25 -70 7 -11 16 -33 20 -49 9
-35 106 -288 141 -366 14 -30 38 -92 54 -136 32 -92 84 -177 117 -195 12 -6
34 -9 47 -5 29 7 80 82 96 141 21 76 100 441 126 585 15 80 58 294 95 475 92
446 94 453 140 750 47 305 68 431 110 655 37 190 50 303 43 343 -9 43 -47 67
-109 67 -30 0 -54 -2 -54 -4z"/>
<path d="M8394 4810 c-33 -17 -73 -47 -91 -66 -30 -34 -34 -36 -64 -25 -58 20
-103 14 -155 -22 -65 -44 -89 -93 -88 -175 l1 -62 -38 -10 c-77 -21 -139 -100
-157 -200 -18 -92 -35 -252 -34 -306 2 -91 27 -131 106 -171 45 -23 48 -26 42
-56 -3 -18 -8 -71 -12 -119 -6 -78 -5 -88 11 -94 25 -10 31 7 38 103 4 48 10
90 15 95 4 4 43 -1 87 -12 117 -30 176 -27 260 14 147 70 201 179 159 322 -5
19 0 22 36 28 58 9 111 38 148 81 37 41 43 97 18 157 -16 37 -87 108 -109 108
-7 0 9 24 36 53 62 66 77 101 77 180 0 89 -29 143 -95 179 -67 37 -117 36
-191 -2z m157 -40 c22 -12 49 -35 59 -53 22 -35 27 -109 10 -151 -13 -34 -87
-114 -123 -132 -22 -12 -28 -21 -25 -41 2 -22 11 -28 50 -38 57 -14 74 -27 99
-76 29 -57 25 -86 -17 -124 -32 -30 -53 -38 -158 -63 -43 -10 -54 -35 -34 -70
44 -74 25 -173 -43 -225 -53 -40 -140 -77 -183 -77 -22 0 -75 10 -119 21 l-79
22 5 33 c16 98 129 319 210 409 50 56 56 85 18 85 -24 0 -104 -93 -155 -179
-42 -72 -87 -175 -112 -253 l-17 -56 -42 20 c-88 43 -94 98 -44 407 10 67 52
141 86 156 10 5 41 11 68 14 56 7 52 -6 43 128 -3 58 15 92 72 131 43 29 81
28 119 -4 24 -20 34 -23 50 -15 11 6 22 20 26 30 13 42 129 120 178 121 10 0
36 -9 58 -20z"/>
<path d="M2040 4785 c-172 -34 -329 -128 -406 -242 -71 -105 -96 -181 -101
-313 -6 -123 6 -194 46 -282 11 -24 35 -77 54 -118 47 -103 149 -230 313 -390
133 -129 179 -170 303 -269 31 -25 76 -61 101 -81 50 -40 210 -158 280 -207
25 -17 62 -47 83 -65 l39 -34 -103 -90 c-179 -154 -389 -376 -389 -411 0 -6
-6 -16 -14 -22 -13 -11 -67 -118 -97 -191 -8 -19 -14 -67 -14 -107 0 -80 15
-110 75 -150 44 -31 168 -32 282 -2 77 19 245 95 279 125 8 8 19 14 22 14 17
0 183 127 256 195 64 61 89 93 121 157 37 75 40 86 40 166 0 79 -2 89 -35 146
-20 34 -51 83 -70 110 -19 26 -35 52 -35 56 0 4 67 51 150 105 82 53 156 106
165 115 10 11 15 30 13 47 -5 46 -46 42 -179 -17 -62 -28 -155 -69 -206 -92
l-92 -41 -78 65 c-43 35 -152 117 -243 183 -308 222 -414 308 -560 454 -188
188 -283 325 -339 489 -25 74 -26 101 -6 169 40 135 161 244 332 299 78 26
102 29 218 29 122 0 133 -2 187 -28 66 -32 169 -100 188 -122 13 -16 38 -19
64 -9 11 4 16 19 16 47 0 58 -47 125 -133 191 -157 119 -333 160 -527 121z
m871 -2137 c66 -35 123 -142 116 -219 -5 -60 -75 -168 -153 -237 -159 -140
-439 -247 -525 -202 -26 15 -25 79 2 133 26 50 109 163 167 228 77 85 338 307
363 309 4 0 17 -6 30 -12z"/>
<path d="M4492 4720 c-14 -23 -15 -107 -2 -240 17 -182 30 -377 45 -679 14
-283 40 -626 50 -661 2 -8 9 -96 15 -195 6 -99 17 -229 26 -290 8 -60 17 -189
20 -285 7 -239 9 -255 40 -269 59 -26 124 0 124 52 0 12 3 32 6 45 6 20 11 22
53 16 56 -7 157 17 221 54 25 14 81 63 126 108 109 111 183 235 242 406 41
121 46 144 50 251 10 259 -58 377 -219 377 -87 0 -164 -37 -250 -121 -85 -83
-248 -332 -249 -381 -1 -19 -29 -53 -37 -44 -4 4 -10 55 -14 114 -13 218 -31
451 -45 602 -8 85 -18 236 -20 335 -3 99 -9 189 -14 200 -5 11 -13 148 -19
304 -12 324 -11 321 -90 321 -35 0 -49 -5 -59 -20z m813 -1506 c45 -18 60
-157 30 -274 -38 -145 -131 -318 -231 -429 -96 -106 -232 -154 -270 -97 -15
23 -14 32 16 138 43 153 73 236 126 345 100 208 246 348 329 317z"/>
<path d="M8646 3869 c-61 -48 -76 -144 -30 -198 54 -65 144 -63 204 5 24 28
30 44 30 80 0 87 -45 134 -128 134 -35 0 -57 -6 -76 -21z m133 -55 c38 -49 21
-109 -38 -133 -58 -24 -113 29 -97 94 16 64 97 87 135 39z"/>
<path d="M9396 3770 c-38 -12 -70 -43 -91 -89 l-17 -38 -41 14 c-58 20 -113 3
-165 -50 -51 -54 -65 -95 -51 -154 5 -25 15 -55 21 -66 l10 -20 -648 6 c-492
4 -657 3 -684 -6 -27 -9 -40 -23 -56 -57 -20 -40 -21 -54 -14 -123 12 -110 42
-147 120 -147 27 0 28 -1 29 -56 0 -35 7 -67 18 -85 123 -199 299 -484 346
-558 l58 -94 -16 -45 c-30 -77 -6 -156 57 -188 30 -15 93 -16 772 -9 407 4
750 11 762 15 13 5 30 20 39 34 22 33 23 118 2 149 -16 25 -14 29 178 352 199
335 222 385 196 433 -15 29 -16 29 30 35 77 10 109 64 109 182 0 71 -2 77 -33
112 l-34 36 -105 5 -106 5 -11 37 c-15 52 -82 151 -120 178 -78 56 -164 66
-242 26 -58 -29 -73 -23 -85 29 -24 113 -118 169 -228 137z m133 -65 c18 -16
36 -46 47 -78 30 -95 65 -112 144 -72 59 30 106 32 163 6 47 -22 69 -44 116
-116 60 -94 88 -88 -408 -86 -323 1 -441 4 -460 14 -57 27 -77 143 -32 191 36
38 87 59 127 51 19 -3 34 -10 34 -15 0 -6 14 -10 30 -10 27 0 33 6 54 54 27
61 60 85 118 86 25 0 46 -8 67 -25z m-95 -394 l839 -8 18 -24 c39 -50 16 -192
-33 -204 -13 -3 -84 -6 -158 -8 -128 -2 -135 -3 -135 -22 0 -18 9 -21 80 -26
90 -6 105 -11 123 -40 15 -24 8 -72 -14 -90 -11 -9 -275 -11 -1117 -10 -606 1
-1112 5 -1125 8 -12 3 -29 18 -37 34 -18 34 -20 95 -3 105 13 8 372 7 1175 -2
506 -6 543 -6 549 10 4 10 2 22 -4 28 -9 9 -1024 26 -1618 28 -258 0 -256 -1
-262 107 -4 77 6 109 41 123 12 5 206 6 432 4 226 -3 787 -9 1249 -13z m479
-490 l208 -6 -169 -284 -169 -283 -454 2 c-250 2 -588 5 -752 9 l-299 6 -102
165 c-56 91 -134 218 -174 283 l-72 117 888 -1 c488 -1 981 -5 1095 -8z m-309
-626 c108 -3 185 -10 193 -16 7 -7 13 -28 13 -49 0 -71 47 -67 -766 -75 l-731
-7 -26 24 c-21 17 -28 33 -29 65 -3 79 -44 74 596 68 314 -3 652 -8 750 -10z"/>
<path d="M9647 3073 c-4 -3 -7 -17 -7 -30 0 -22 3 -23 69 -23 73 0 86 7 76 40
-5 17 -15 20 -69 20 -34 0 -66 -3 -69 -7z"/>
<path d="M9824 3066 c-10 -26 4 -48 28 -44 17 2 23 10 23 28 0 18 -6 26 -23
28 -13 2 -25 -3 -28 -12z"/>
<path d="M6550 3374 c-7 -18 -7 -46 -1 -83 6 -31 17 -132 26 -226 8 -93 20
-206 25 -250 23 -180 29 -291 30 -501 0 -201 2 -222 18 -237 24 -22 61 -22 91
-1 43 31 52 73 61 308 10 236 19 310 45 372 30 72 103 178 162 235 80 79 225
149 306 149 80 0 139 68 96 111 -14 14 -33 19 -75 19 -139 0 -253 -34 -380
-115 -82 -51 -109 -79 -164 -162 l-47 -71 -7 116 c-10 172 -30 289 -52 313
-25 28 -67 49 -99 49 -18 0 -28 -7 -35 -26z"/>
<path d="M15434 3358 c-5 -7 -7 -190 -5 -408 2 -269 -1 -404 -8 -424 -23 -60
-199 -209 -273 -231 -70 -20 -92 -19 -123 8 -72 62 -70 306 6 761 40 237 43
230 -86 223 -97 -6 -181 -33 -276 -90 -163 -97 -379 -358 -487 -588 -46 -99
-52 -106 -113 -148 -35 -25 -91 -66 -124 -91 -68 -52 -104 -74 -112 -67 -2 3
0 45 7 94 6 48 20 162 30 253 11 91 27 203 35 250 9 47 18 105 21 130 3 25 10
63 14 85 14 61 12 151 -4 164 -23 19 -109 41 -161 41 -111 0 -224 -41 -355
-128 -168 -111 -309 -281 -405 -487 -41 -88 -55 -108 -133 -183 -266 -256
-414 -345 -549 -329 -51 5 -85 33 -115 90 -21 43 -19 47 42 79 92 47 261 213
339 333 27 41 64 109 82 152 30 68 34 88 33 163 0 102 -13 144 -59 192 -64 65
-190 71 -303 14 -150 -76 -301 -331 -342 -576 -22 -132 4 -336 56 -430 34 -62
51 -80 108 -118 69 -45 115 -55 232 -50 152 5 200 32 379 212 l140 141 6 -82
c6 -82 24 -128 55 -140 8 -3 14 -11 14 -18 0 -21 79 -46 145 -46 73 0 148 27
220 79 64 47 188 177 243 256 l43 61 -2 -149 c-1 -81 -5 -162 -8 -180 -5 -24
-26 -46 -98 -101 -179 -138 -314 -266 -487 -464 -66 -74 -220 -309 -267 -406
-48 -100 -59 -155 -60 -306 -1 -202 36 -297 144 -373 l58 -41 117 0 c136 0
160 8 299 102 194 130 307 305 366 568 36 158 77 480 77 610 0 115 17 316 29
346 5 13 51 61 102 106 52 45 117 103 144 129 l50 48 6 -95 c4 -79 10 -103 35
-148 38 -72 67 -91 141 -98 56 -5 64 -3 108 27 100 69 255 243 368 413 l64 97
5 -165 c4 -158 6 -166 34 -221 50 -98 134 -120 250 -65 62 29 173 117 229 180
44 51 55 61 66 61 5 0 9 -56 9 -129 0 -115 2 -131 21 -155 15 -19 30 -26 54
-26 53 0 74 25 94 116 39 176 121 415 226 658 9 22 32 64 51 93 30 48 37 53
69 53 45 0 70 -37 80 -118 18 -150 86 -394 135 -492 52 -103 136 -170 214
-170 36 0 84 23 96 46 16 30 6 44 -33 44 -104 1 -195 109 -240 285 -14 56 -21
102 -47 308 -18 134 -45 203 -105 263 -81 81 -136 82 -211 2 -48 -50 -101
-139 -148 -246 -52 -120 -70 -155 -90 -171 -14 -12 -16 13 -16 264 l0 278 -45
44 c-46 43 -86 56 -101 31z m-1666 -221 c9 -74 -137 -375 -277 -571 -97 -137
-277 -276 -356 -276 -39 0 -51 9 -64 43 -16 43 -13 76 15 173 45 158 147 324
276 451 97 95 121 114 198 154 85 44 127 58 170 56 30 -2 35 -6 38 -30z m1111
-20 c19 -24 -38 -191 -110 -322 -92 -168 -202 -326 -293 -423 -80 -85 -136
-110 -183 -84 -19 11 -23 21 -23 63 0 233 254 607 512 754 48 28 80 31 97 12z
m-2317 -35 c40 -34 26 -141 -34 -254 -57 -107 -295 -333 -329 -312 -31 19 14
188 93 351 55 114 117 191 179 221 42 21 61 20 91 -6z m1063 -1185 c13 -88
-22 -476 -61 -672 -49 -244 -179 -460 -320 -530 -110 -54 -223 -61 -284 -17
-85 61 -93 231 -23 442 66 197 169 333 482 637 86 84 163 159 171 167 24 23
28 19 35 -27z"/>
<path d="M4101 3319 c-148 -25 -314 -131 -458 -293 -52 -57 -175 -236 -226
-326 -55 -99 -97 -258 -97 -369 0 -91 15 -139 58 -184 64 -68 131 -74 237 -23
117 56 238 182 371 386 l49 75 6 -165 c3 -91 10 -176 14 -190 15 -46 45 -78
91 -96 40 -15 51 -16 102 -3 72 17 211 109 282 187 28 31 60 66 71 77 14 16
19 35 19 78 0 55 -1 57 -26 57 -18 0 -45 -18 -87 -59 -159 -150 -260 -172
-299 -63 -32 92 -4 521 46 705 25 92 28 162 8 185 -21 25 -87 33 -161 21z
m-29 -224 c-4 -45 -47 -180 -85 -267 -75 -169 -288 -448 -387 -507 -44 -26
-65 -26 -90 -1 -14 14 -20 33 -20 63 0 56 44 207 82 282 65 125 250 340 363
420 70 49 81 55 115 52 23 -2 25 -6 22 -42z"/>
<path d="M5675 3313 c-50 -14 -65 -33 -65 -85 0 -40 5 -53 26 -73 19 -18 25
-31 21 -47 -30 -115 -37 -171 -41 -313 -7 -292 13 -414 88 -540 39 -66 61 -89
117 -126 95 -60 200 -49 280 31 95 95 200 293 239 448 10 42 23 93 29 112 18
59 14 266 -6 308 -36 76 -159 167 -279 208 -148 50 -361 90 -409 77z m315
-238 c77 -26 116 -59 183 -155 30 -42 32 -51 31 -125 0 -57 -7 -100 -24 -150
-13 -38 -24 -72 -25 -75 -1 -12 -76 -140 -85 -145 -6 -4 -8 -10 -5 -15 3 -5
-16 -32 -43 -60 -40 -42 -54 -50 -84 -50 -41 0 -90 35 -112 79 -44 87 -52 334
-17 544 12 70 27 139 33 152 15 33 52 33 148 0z"/>
<path d="M16566 3285 c-46 -16 -53 -22 -61 -57 -6 -22 0 -34 36 -73 l43 -46
-18 -67 c-23 -85 -46 -257 -46 -344 0 -99 19 -266 37 -323 36 -116 100 -205
192 -268 58 -39 157 -49 217 -21 65 31 125 101 182 211 83 162 132 364 132
546 0 131 -11 160 -84 232 -50 49 -81 69 -168 107 -96 42 -284 96 -388 111
-20 3 -53 -1 -74 -8z m354 -225 c83 -34 154 -83 190 -132 24 -31 25 -40 24
-153 -1 -96 -6 -133 -24 -185 -54 -154 -140 -285 -213 -324 -31 -17 -40 -18
-80 -7 -86 24 -119 85 -138 250 -20 176 5 425 55 546 14 33 17 35 64 35 32 0
75 -11 122 -30z"/>
</g>
</svg>
