<?xml version="1.0" standalone="no"?>
<!DOCTYPE svg PUBLIC "-//W3C//DTD SVG 20010904//EN"
 "http://www.w3.org/TR/2001/REC-SVG-20010904/DTD/svg10.dtd">
<svg version="1.0" xmlns="http://www.w3.org/2000/svg"
 width="780.000000pt" height="237.000000pt" viewBox="0 0 780.000000 237.000000"
 preserveAspectRatio="xMidYMid meet">

<g transform="translate(0.000000,237.000000) scale(0.100000,-0.100000)"
fill="#000000" stroke="none">
<path d="M3977 2260 c-20 -16 -34 -19 -66 -14 -31 5 -47 2 -74 -15 -41 -25
-47 -37 -47 -98 0 -34 -6 -53 -26 -76 -22 -27 -25 -38 -22 -79 5 -52 34 -93
76 -109 13 -5 20 -14 17 -20 -13 -20 6 -97 29 -122 49 -53 149 -56 202 -6 23
21 25 22 67 5 24 -9 74 -41 110 -71 54 -45 71 -54 85 -46 20 10 92 87 92 97 0
3 -21 27 -47 52 -46 46 -93 130 -93 165 0 11 10 32 21 49 29 41 23 127 -12
164 -26 29 -89 64 -114 64 -8 0 -33 18 -55 40 -33 33 -47 40 -79 40 -23 0 -48
-8 -64 -20z m102 -16 c12 -9 31 -30 41 -46 15 -25 26 -31 57 -32 75 -4 135
-76 118 -144 -3 -15 -28 -48 -56 -73 -37 -35 -49 -53 -49 -75 0 -40 -16 -54
-63 -54 -34 0 -40 -4 -52 -33 -18 -44 -45 -67 -89 -74 -44 -7 -90 11 -112 45
-12 19 -15 38 -11 79 5 50 4 53 -16 53 -81 0 -112 120 -43 165 22 14 24 20 15
43 -14 37 -3 88 24 107 26 18 70 20 96 3 17 -10 24 -7 49 20 34 36 57 40 91
16z m195 -387 c10 -26 39 -71 66 -100 53 -58 53 -61 -7 -111 -22 -18 -23 -18
-75 29 -29 27 -77 59 -105 71 -63 28 -68 44 -14 44 46 0 81 35 81 79 0 28 20
56 30 44 4 -5 15 -29 24 -56z"/>
<path d="M3302 2244 c-45 -31 -17 -104 41 -104 50 0 63 66 21 99 -32 25 -33
25 -62 5z m56 -43 c4 -28 -9 -44 -31 -35 -19 7 -31 39 -22 54 12 20 50 7 53
-19z"/>
<path d="M5192 2158 c-38 -218 -83 -483 -92 -538 -5 -36 -23 -137 -39 -225
-17 -88 -39 -209 -50 -270 -28 -148 -31 -159 -41 -149 -12 13 -169 434 -266
717 -61 177 -67 187 -109 187 -26 0 -35 -4 -35 -16 0 -18 71 -228 127 -379 18
-49 50 -137 69 -195 20 -58 42 -118 49 -135 7 -16 34 -86 60 -155 60 -159 80
-197 106 -205 40 -13 63 45 105 260 14 72 45 225 69 340 24 116 49 246 55 290
16 104 45 280 65 380 8 44 15 90 15 102 0 28 -25 53 -54 53 -20 0 -24 -7 -34
-62z"/>
<path d="M3504 2111 c-18 -11 -35 -24 -38 -30 -4 -6 -27 -11 -51 -11 -60 0
-96 -31 -98 -84 -1 -32 -5 -40 -28 -48 -40 -14 -56 -45 -69 -134 -17 -114 -12
-144 27 -169 32 -20 32 -21 27 -76 -8 -74 12 -91 22 -19 7 55 6 55 70 39 37
-10 52 -9 89 5 65 25 98 68 93 123 -3 39 -1 43 23 48 14 3 39 19 54 35 32 34
29 74 -10 110 l-25 23 25 33 c27 35 33 90 15 125 -11 20 -60 49 -82 49 -7 0
-27 -9 -44 -19z m96 -38 c29 -37 20 -79 -25 -119 -36 -32 -45 -54 -21 -54 25
0 66 -41 66 -65 0 -26 -29 -46 -83 -59 -26 -6 -28 -10 -21 -34 17 -61 0 -98
-58 -128 -32 -17 -60 -18 -110 -4 l-37 11 14 38 c20 57 54 122 86 162 33 42
35 49 15 49 -22 0 -90 -100 -116 -170 -12 -33 -26 -60 -29 -60 -23 0 -43 30
-44 66 -2 132 31 214 88 214 25 0 26 2 20 39 -5 32 -2 43 18 67 24 27 27 28
58 17 31 -12 35 -11 54 11 44 52 93 60 125 19z"/>
<path d="M472 2095 c-72 -20 -100 -37 -146 -83 -81 -85 -91 -223 -25 -357 44
-90 196 -244 364 -370 66 -49 130 -98 142 -108 l21 -19 -112 -111 c-156 -156
-207 -265 -155 -331 22 -28 24 -29 99 -23 83 5 123 21 223 89 119 81 167 145
167 223 0 35 -30 108 -50 120 -23 14 -6 36 61 80 71 47 89 69 72 86 -7 7 -45
-5 -113 -35 l-103 -45 -85 62 c-46 34 -135 101 -196 148 -320 248 -391 453
-191 549 112 53 201 51 287 -6 78 -53 107 -24 48 48 -64 78 -198 114 -308 83z
m481 -1053 c26 -44 15 -81 -39 -141 -51 -56 -112 -94 -191 -117 -90 -26 -117
2 -72 75 22 37 151 169 208 214 31 24 37 25 55 13 12 -7 29 -27 39 -44z"/>
<path d="M1654 2067 c-3 -9 -1 -66 5 -129 6 -62 16 -200 21 -306 6 -106 13
-212 16 -235 7 -63 24 -288 30 -412 7 -151 8 -155 44 -155 26 0 31 5 37 30 5
26 9 30 32 27 71 -10 188 78 241 183 73 143 81 301 18 360 -26 24 -86 27 -127
5 -44 -22 -117 -110 -153 -182 -30 -62 -33 -64 -39 -39 -4 14 -17 185 -29 379
-11 193 -24 381 -28 417 -7 62 -8 65 -35 68 -17 2 -29 -2 -33 -11z m406 -727
c15 -28 2 -114 -27 -180 -31 -70 -96 -156 -133 -175 -35 -18 -77 -20 -83 -2
-6 18 31 142 63 212 60 130 149 202 180 145z"/>
<path d="M3622 1664 c-31 -22 -30 -78 2 -99 29 -19 72 -11 86 15 36 66 -28
127 -88 84z m72 -30 c9 -24 -12 -56 -36 -52 -30 4 -45 32 -29 52 17 21 57 21
65 0z"/>
<path d="M3974 1618 c-12 -5 -26 -20 -32 -32 -8 -18 -16 -21 -44 -18 -64 7
-106 -51 -84 -117 l8 -24 -308 7 c-357 8 -354 9 -354 -70 0 -58 14 -84 45 -84
21 0 25 -5 25 -29 0 -19 33 -83 100 -190 89 -144 99 -163 89 -185 -9 -18 -8
-31 3 -52 l13 -29 369 -3 c279 -2 372 1 383 10 11 9 14 25 10 57 -5 42 0 54
73 176 100 167 100 168 100 204 0 24 4 31 19 31 27 0 43 24 48 73 5 39 2 46
-22 65 -18 14 -42 22 -69 22 -38 1 -42 4 -61 42 -34 71 -91 98 -153 72 -32
-13 -32 -13 -48 25 -21 53 -64 72 -110 49z m74 -31 c6 -6 14 -25 17 -40 8 -32
43 -44 75 -27 37 20 87 4 115 -38 14 -20 25 -40 25 -44 0 -5 -97 -8 -215 -8
-202 0 -215 1 -225 19 -30 57 14 115 71 94 26 -10 30 -9 48 23 16 26 27 34 49
34 16 0 34 -6 40 -13z m355 -194 c12 -7 8 -78 -5 -91 -7 -7 -41 -12 -81 -12
-50 0 -68 -3 -65 -12 3 -7 22 -14 44 -16 47 -4 58 -13 49 -41 -6 -21 -7 -21
-535 -21 -474 0 -530 2 -545 16 -9 9 -15 24 -13 33 3 14 43 16 413 17 268 0
410 4 412 11 5 15 -180 23 -549 23 -313 0 -328 1 -338 19 -14 27 -13 64 3 80
10 11 125 12 607 6 327 -4 598 -9 603 -12z m-181 -222 l98 -6 -78 -132 -77
-133 -155 0 c-85 0 -246 3 -358 7 l-203 6 -79 129 c-44 70 -80 130 -80 133 0
7 817 4 932 -4z m-58 -304 c10 -7 15 -19 11 -29 -9 -22 -156 -30 -474 -26
-211 3 -245 5 -254 19 -6 9 -7 24 -4 33 6 14 41 16 355 16 267 0 352 -3 366
-13z"/>
<path d="M4095 1290 c-11 -18 5 -30 36 -26 35 4 44 11 34 25 -8 14 -62 14 -70
1z"/>
<path d="M4185 1290 c-4 -6 -3 -16 3 -22 6 -6 12 -6 17 2 4 6 3 16 -3 22 -6 6
-12 6 -17 -2z"/>
<path d="M2635 1440 c-3 -5 3 -96 15 -201 11 -105 20 -239 20 -299 0 -112 9
-137 43 -124 24 9 35 57 41 182 6 129 22 176 81 241 41 45 108 81 149 81 28 0
70 35 61 50 -4 6 -33 10 -66 10 -86 0 -175 -47 -228 -121 l-28 -38 -7 91 c-5
75 -10 96 -28 115 -23 24 -43 29 -53 13z"/>
<path d="M6840 1231 l0 -198 -54 -51 c-75 -71 -127 -82 -154 -32 -16 31 -10
193 13 324 9 49 14 95 11 102 -9 22 -85 17 -143 -11 -92 -42 -213 -175 -264
-289 -15 -34 -38 -59 -86 -96 -69 -52 -83 -59 -83 -37 0 13 31 227 51 355 15
94 5 107 -79 107 -123 -1 -268 -112 -347 -265 -30 -60 -55 -90 -122 -150 -96
-86 -141 -112 -196 -114 -30 0 -44 5 -58 23 -10 13 -19 27 -19 32 0 4 20 22
43 38 63 43 142 133 171 195 49 104 27 197 -49 212 -126 23 -255 -152 -256
-349 -1 -153 72 -237 196 -224 65 7 115 38 180 114 l49 56 13 -49 c16 -62 42
-84 101 -84 58 0 116 37 187 121 57 68 62 63 50 -46 l-6 -60 -71 -55 c-77 -61
-203 -189 -247 -254 -16 -22 -46 -74 -67 -115 -33 -64 -39 -86 -42 -151 -5
-100 9 -150 53 -189 31 -27 43 -31 92 -31 127 0 255 111 301 260 23 76 49 260
58 412 l6 107 71 68 72 68 6 -60 c11 -102 75 -133 153 -73 43 33 103 103 152
177 l29 45 5 -86 c7 -106 26 -138 86 -138 34 0 105 42 148 89 17 17 33 31 38
31 4 0 8 -26 8 -57 0 -68 9 -86 40 -81 19 3 27 19 57 118 36 119 86 248 111
288 17 26 48 29 60 5 5 -10 15 -47 21 -83 19 -102 48 -182 82 -223 28 -34 35
-38 73 -35 29 2 42 8 44 21 3 12 -3 17 -20 17 -61 0 -100 75 -124 232 -19 130
-19 132 -55 168 -60 59 -101 30 -173 -120 l-41 -85 -3 130 c-2 116 -5 132 -24
152 -45 48 -48 37 -48 -176z m-790 84 c0 -30 -67 -167 -121 -246 -42 -63 -96
-113 -144 -136 -48 -23 -65 -12 -65 39 0 104 134 292 245 344 66 31 85 31 85
-1z m530 -15 c0 -79 -194 -373 -250 -380 -35 -5 -40 1 -40 43 0 94 110 258
219 329 53 33 71 35 71 8z m-1102 -2 c20 -20 13 -71 -17 -124 -32 -55 -127
-147 -145 -141 -33 12 37 194 95 248 34 32 49 35 67 17z m502 -676 c-25 -261
-55 -357 -138 -435 -68 -65 -176 -65 -198 1 -18 57 -1 151 44 243 36 73 58
101 164 207 142 142 143 142 128 -16z"/>
<path d="M1430 1396 c-155 -55 -330 -297 -330 -456 0 -76 56 -123 127 -105 34
8 135 106 175 169 l33 51 6 -85 c6 -75 9 -86 34 -107 21 -19 34 -23 59 -18 72
16 186 115 186 163 0 36 -17 33 -71 -13 -29 -25 -60 -46 -68 -46 -28 -2 -46 3
-53 14 -24 39 -17 192 18 357 9 46 10 68 2 77 -13 16 -72 16 -118 -1z m27
-104 c-20 -98 -91 -225 -175 -312 -37 -39 -56 -51 -73 -48 -79 11 31 244 163
349 61 48 93 52 85 11z"/>
<path d="M2208 1399 c-20 -11 -25 -65 -7 -71 8 -3 7 -21 -1 -65 -19 -97 -9
-266 20 -331 28 -64 77 -102 131 -102 90 0 199 202 199 371 0 51 -5 72 -20 92
-32 40 -101 75 -192 97 -94 23 -106 23 -130 9z m167 -109 c30 -11 41 -22 74
-68 36 -51 24 -123 -37 -229 -31 -53 -43 -63 -73 -63 -41 0 -59 34 -66 124 -5
65 10 216 24 239 6 10 47 9 78 -3z"/>
<path d="M7368 1389 c-22 -13 -23 -42 -2 -60 12 -10 14 -22 9 -49 -27 -147
-22 -288 14 -359 50 -97 147 -131 210 -72 65 61 134 276 117 365 -16 87 -115
146 -301 180 -16 3 -38 1 -47 -5z m180 -105 c49 -20 90 -60 97 -95 14 -64 -28
-195 -81 -252 -21 -23 -33 -28 -62 -25 -31 2 -40 9 -55 38 -16 30 -18 53 -14
160 7 189 22 213 115 174z"/>
</g>
</svg>
